<?xml version="1.0" encoding="utf-8" ?><svg xmlns="http://www.w3.org/2000/svg" xmlns:xlink="http://www.w3.org/1999/xlink" width="1024" height="1024" viewBox="0 0 1024 1024"><path fill="#0D1522" d="M0 0L1024 0L1024 1024L0 1024L0 0Z"/><path fill="#4493EE" d="M446.013 481.533C467.505 481.355 488.998 481.369 510.49 481.574L558.309 481.628C567.309 489.95 583.255 503.736 591.141 512.302C580.094 522.138 568.472 532.916 557.288 542.48C528.421 542.221 499.552 542.181 470.684 542.361C467.736 542.381 447.438 542.205 445.795 542.525L412.806 513.117C424.031 502.755 435.101 492.226 446.013 481.533Z"/><path fill="#FEFEFE" d="M446.013 481.533C467.505 481.355 488.998 481.369 510.49 481.574C509.843 483.107 451.164 537.897 445.795 542.525L412.806 513.117C424.031 502.755 435.101 492.226 446.013 481.533Z"/><path fill="#4493EE" d="M484.629 368.378C496.104 368.378 509.517 367.828 520.626 368.121L598.518 368.347C582.556 383.638 565.631 399.412 550.049 414.98L545.603 415.111C538.166 415.849 521.78 415.52 513.971 415.36C500.689 415.169 487.404 415.164 474.121 415.347C467.821 415.383 458.471 415.059 452.41 415.528C436.426 400.765 417.295 383.692 402.247 368.359C428.372 367.581 458.376 367.986 484.629 368.378Z"/><path fill="#FEFEFE" d="M520.626 368.121L598.518 368.347C582.556 383.638 565.631 399.412 550.049 414.98L545.603 415.111C536.353 414.587 521.53 415.212 511.656 415.112L511.768 368.415C514.722 368.361 517.675 368.263 520.626 368.121Z"/><path fill="#FEFEFE" d="M402.247 368.359C428.372 367.581 458.376 367.986 484.629 368.378C478.753 377.051 472.818 385.683 466.825 394.275C462.089 400.965 456.313 408.486 452.41 415.528C436.426 400.765 417.295 383.692 402.247 368.359Z"/><path fill="#4493EE" d="M451.572 611.737C471.673 611.61 491.774 611.586 511.875 611.664C524.739 611.68 539.224 611.41 552.002 611.92C562.874 620.908 573.591 631.545 584.036 641.165C587.648 644.491 596.982 652.846 599.799 656.276C581.585 655.899 563.368 655.773 545.151 655.899C534.674 655.906 522.858 655.664 512.477 655.997C502.844 655.326 490.768 655.864 480.861 655.692C456.608 655.272 431.958 656.021 407.743 655.437C406.012 655.445 405.624 655.665 404.14 654.997C407.681 650.907 414.651 645.33 418.872 641.474C429.576 631.695 441.425 622.073 451.572 611.737Z"/><path fill="#1F5DB2" d="M407.743 655.437C414.679 654.858 420.963 653.204 427.652 651.8C452.523 646.579 475.709 637.808 496.636 623.168C501.665 619.65 506.746 616.472 511.513 612.358C511.499 622.767 511.223 644.167 511.799 655.268C512.025 655.511 512.251 655.754 512.477 655.997C502.844 655.326 490.768 655.864 480.861 655.692C456.608 655.272 431.958 656.021 407.743 655.437Z"/><path fill="#4493EE" d="M286.81 404.704C286.794 404.358 286.783 404.012 286.778 403.665C286.277 369.084 296.377 340.518 320.896 315.4C340.154 295.64 365.721 283.244 393.162 280.364C398.853 279.782 406.618 279.873 412.446 279.806C412.459 290.999 412.272 302.851 412.499 313.989C367.579 313.75 330.829 338.367 322.298 384.743C321.096 391.278 321.218 398.103 321.15 404.748C309.704 404.854 298.256 404.839 286.81 404.704Z"/><path fill="#1F5DB2" d="M287.495 618.366L288.221 619.636C291.621 620.296 317.647 619.986 322.658 619.987C322.778 625.375 322.766 633.033 323.414 638.255C325.829 656.528 334.363 673.444 347.626 686.244C366.162 703.944 387.373 710.164 412.531 709.9L412.523 743.585C417.848 743.583 423.895 743.43 429.142 743.896C418.358 744.62 399.722 744.099 389.295 743.003C365.32 740.481 338.864 726.065 321.949 709.226C304.689 692.043 291.698 667.974 288.556 643.629C287.413 634.949 287.496 627.08 287.495 618.366Z"/><path fill="#4493EE" d="M624.653 280.431C679.504 281.485 735.235 335.948 734.578 391.359C734.349 396.12 734.391 400.649 734.418 405.405L701.037 405.414C701.027 401.839 701.179 396.832 700.555 393.452C699.641 351.114 663.307 317.829 622.098 314.439C618.766 313.761 614.123 313.977 610.618 314.01C610.464 302.894 610.546 291.545 610.516 280.411C615.299 280.525 619.864 280.684 624.653 280.431Z"/><path fill="#4493EE" d="M735 620.001C734.876 634.424 734.228 646.794 730.006 660.911C716.423 706.336 674.533 740.452 627.203 744.063C621.868 744.47 616.143 744.491 610.767 744.442C610.791 733.165 610.732 721.888 610.588 710.612C612.766 710.621 618.193 710.864 619.884 710.152C658.589 709.52 693.778 679.241 699.866 641.024C700.933 634.322 700.82 626.818 700.897 620.012L735 620.001Z"/><path fill="#FEFEFE" d="M601.485 523.02C613.607 533.714 625.313 544.519 637.528 555.163L637.535 586.117C637.535 591.285 637.744 598.521 637.39 603.552C637.303 607.639 637.471 612.366 637.516 616.504C627.266 625.309 616.894 633.969 606.4 642.481C595.277 631.608 583.013 621.078 571.686 610.177C578.018 603.86 585.014 597.894 590.925 591.301C590.998 585.356 590.991 579.41 590.904 573.464L590.801 566.055C585.404 560.43 579.385 554.974 574.206 549.473C580.406 542.304 594.044 530.069 601.485 523.02Z"/><path fill="#1F5DB2" d="M601.485 523.02C613.607 533.714 625.313 544.519 637.528 555.163L637.535 586.117C637.535 591.285 637.744 598.521 637.39 603.552C636.534 593.273 637.138 575.156 637.178 564.222C621.726 567.613 606.239 570.136 590.904 573.464L590.801 566.055C585.404 560.43 579.385 554.974 574.206 549.473C580.406 542.304 594.044 530.069 601.485 523.02Z"/><path fill="#4493EE" d="M609.21 379.402C615.908 385.189 631.807 398.85 637.116 405.078L637.12 407.269C638.242 424.938 637.114 449.118 637.392 467.488C626.065 478.555 613.038 489.428 601.274 500.452C592.228 491.633 583.293 484.188 574.424 475.775C578.415 472.095 587.543 462.778 591.023 460.213C591.024 455.398 590.824 448.024 591.119 443.422L591.023 434.629C586.414 429.163 577.618 421.251 572.165 416.105C583.906 403.873 597.076 391.736 609.21 379.402Z"/><path fill="#1F5DB2" d="M609.21 379.402C615.908 385.189 631.807 398.85 637.116 405.078C622.374 415.237 606.089 424.742 591.023 434.629C586.414 429.163 577.618 421.251 572.165 416.105C583.906 403.873 597.076 391.736 609.21 379.402Z"/><path fill="#FEFEFE" d="M637.116 405.078L637.12 407.269C636.845 419.789 637.013 433.154 637.079 445.731C623.122 449.625 605.143 454.773 591.353 459.749C591.323 455.887 591.468 446.881 591.119 443.422L591.023 434.629C606.089 424.742 622.374 415.237 637.116 405.078Z"/><path fill="#1F5DB2" d="M734.578 391.359C735.34 399.56 734.482 408.079 734.548 416.302C734.652 429.041 735.194 440.328 731.249 452.603C724.058 474.974 703.564 489.402 686.975 504.949C676.322 514.932 664.947 526.954 653.914 536.29C653.29 523.131 653.402 503.701 653.845 490.341C662.721 480.982 673.328 472.49 682.572 463.431C691.535 454.648 699.565 449.752 700.566 436.149C701.603 422.049 699.809 407.38 700.555 393.452C701.179 396.832 701.027 401.839 701.037 405.414L734.418 405.405C734.391 400.649 734.349 396.12 734.578 391.359Z"/><path fill="#4493EE" d="M287.495 618.366C287.603 600.622 285.696 583.062 292.905 566.4C300.697 548.391 314.561 537.781 328.684 524.981L365.038 491.876L365.025 536.852C358.068 542.84 351.255 549.801 344.56 556.157C339.181 561.265 331.392 567.431 327.384 573.412C324.594 577.514 322.922 582.273 322.535 587.218C322.033 593.836 322.4 612.837 322.658 619.987C317.647 619.986 291.621 620.296 288.221 619.636L287.495 618.366Z"/><path fill="#FEFEFE" d="M490.893 673.688L539.526 673.561C528.868 684.56 518.011 695.363 506.96 705.966C485.779 726.521 470.978 743.396 438.83 743.948C435.601 743.98 432.371 743.962 429.142 743.896C423.895 743.43 417.848 743.583 412.523 743.585L412.531 709.9C430.037 709.106 448.256 713.291 462.346 700.852C472.213 692.141 481.168 682.492 490.893 673.688Z"/><path fill="#1F5DB2" d="M485.948 349.351C493.821 340.721 504.983 331.202 513.61 322.776C522.253 314.333 532.991 303.288 541.932 295.836C559.46 281.229 579.58 279.242 601.396 279.957C608.848 280.201 616.909 279.58 624.653 280.431C619.864 280.684 615.299 280.525 610.516 280.411C610.546 291.545 610.464 302.894 610.618 314.01C614.123 313.977 618.766 313.761 622.098 314.439C564.901 316.043 577.954 306.682 535.434 349.17C520.867 349.992 500.999 349.408 485.948 349.351Z"/><path fill="#FEFEFE" d="M391.399 381.693C393.575 383.1 402.113 391.41 404.562 393.69C415.789 404.14 426.589 415.005 437.854 425.445L437.918 469.207L415.359 490.088C407.154 497.49 399.329 504.52 391.491 512.319L391.399 381.693Z"/><path fill="#4493EE" d="M391.447 512.681C393.263 513.829 404.513 524.846 406.519 526.765L437.982 556.704L437.993 599.292C430.539 606.085 423.149 612.947 415.823 619.877C408.772 626.564 398.722 636.573 391.306 642.299C391.7 599.176 390.844 555.658 391.447 512.681Z"/><path fill="#FEFEFE" d="M286.81 404.704C298.256 404.839 309.704 404.854 321.15 404.748L320.952 426.61C320.834 445.432 325.668 450.243 338.925 462.877C343.123 466.878 350.807 473.964 353.881 478.439C345.329 485.555 336.719 493.795 327.862 501.204C322.037 495.328 316.178 489.485 310.284 483.678C284.24 457.609 286.804 439.147 286.81 404.704Z"/><path fill="#FEFEFE" d="M693.139 523.366C700.704 530.49 709.211 538.054 716.252 545.575C738.26 569.084 735.83 590.904 735 620.001L700.897 620.012C701.246 570.168 703.793 579.804 668.211 546.527C675.858 538.944 685.132 531.055 693.139 523.366Z"/><path fill="#FEFEFE" d="M412.446 279.806C455.264 278.369 467.276 278.871 499.331 309.035C500.054 309.72 500.769 310.414 501.474 311.117C493.891 318.227 483.532 328.425 475.745 334.919C450.159 310.282 447.714 313.839 412.499 313.989C412.272 302.851 412.459 290.999 412.446 279.806Z"/><path fill="#1F5DB2" d="M549.636 689.856C556.226 696.413 566.637 708.138 576.094 709.429C589.291 711.231 606.475 709.947 619.884 710.152C618.193 710.864 612.766 710.621 610.588 710.612C610.732 721.888 610.791 733.165 610.767 744.442C567.691 744.618 557.369 746.714 525.45 714.287C533.887 706.102 541.415 697.988 549.636 689.856Z"/></svg>